<?xml version="1.0" encoding="utf-8" ?>
<svg baseProfile="tiny" height="1024px" version="1.2" width="1024px" xmlns="http://www.w3.org/2000/svg" xmlns:ev="http://www.w3.org/2001/xml-events" xmlns:xlink="http://www.w3.org/1999/xlink"><defs /><circle cx="512" cy="512" fill="none" r="400" stroke="red" stroke-width="60" /><line stroke="red" stroke-width="60" x1="150" x2="874" y1="150" y2="874" /><path d="M372,310 h280 a40,40 0 0 1 40,40 v280 a40,40 0 0 1 -40,40 h-280 a40,40 0 0 1 -40,-40 v-280 a40,40 0 0 1 40,-40 z" fill="white" /><rect fill="red" height="80px" transform="rotate(-20, 420, 310)" width="40px" x="420" y="310" /><rect fill="red" height="80px" transform="rotate(-20, 500, 310)" width="40px" x="500" y="310" /><rect fill="red" height="80px" transform="rotate(-20, 580, 310)" width="40px" x="580" y="310" /></svg>